# xmcd CD database file
#
# Track frame offsets:
#	150
#	14237
#	27460
#	42616
#	54646
#	67401
#	84247
#	98627
#	112278
#	126941
#	141754
#	154998
#	169586
#	180322
#	191122
#	199179
#	208590
#	219076
#	229678
#	237410
#	249480
#	261536
#	269857
#	278597
#	288234
#	297757
#
# Disc length: 4070 seconds
#
# Revision: 0
# Processed by: cddbd v1.5.2PL0 Copyright (c) Steve Scherf et al.
# Submitted via: CDex 1.70beta2
#
DISCID=9e0fe41a
DTITLE=Frank Chacksfield  - Frank Chacksfield - Could I Have This Dance
DYEAR=1900
DGENRE=Ballroom
TTITLE0=Frank Chacksfield - Could I Have This Dance - Waltz - 29
TTITLE1=Frank Chacksfield - You're Getting To Be A Habit - Foxtrot - 36
TTITLE2=Frank Chacksfield - Xanadu - Cha Cha - 32
TTITLE3=Frank Chacksfield - Woman In Love - Rumba - 27
TTITLE4=Frank Chacksfield - They're Playing Our Song - QS - 47
TTITLE5=Frank Chacksfield - Suddenly - Blues
TTITLE6=Frank Chacksfield - Starting Over - FT - 27
TTITLE7=Frank Chacksfield - Laurann - Waltz - 26
TTITLE8=Frank Chacksfield - Lady - Cha Cha - 32
TTITLE9=Frank Chacksfield - Imagine - Rumba - 25
TTITLE10=Frank Chacksfield - 42nd Street - QS
TTITLE11=Frank Chacksfield - Do That To Me One More Time - Bolero - 24
TTITLE12=Frank Chacksfield - Just The Way You Are - FT - 29
TTITLE13=Frank Chacksfield - Jeannie With The Light Brown Hair - Shenandoah - FT - 29
TTITLE14=Frank Chacksfield - On The Street Where You Live - QS - 49
TTITLE15=Frank Chacksfield - Barcarolle - QS - 49
TTITLE16=Frank Chacksfield - Send In The Clowns - Waltz - 30
TTITLE17=Frank Chacksfield - You Light Up My Life - Waltz - 30
TTITLE18=Frank Chacksfield - Little Brown Jug - Jive - 42
TTITLE19=Frank Chacksfield - Don't Cry For Me Argentina - Rumba - 26
TTITLE20=Frank Chacksfield - We've Only Just Begun - Rumba - 26
TTITLE21=Frank Chacksfield - Copacabana - Samba - 56
TTITLE22=Frank Chacksfield - Love Is In The Air - Samba - 54
TTITLE23=Frank Chacksfield - How Deep Is Your Love - Cha Cha - 32
TTITLE24=Frank Chacksfield - Oh! What A Circus - Cha Cha - 32
TTITLE25=Frank Chacksfield - When - Jive - 42
EXTD=
EXTT0=
EXTT1=
EXTT2=
EXTT3=
EXTT4=
EXTT5=
EXTT6=
EXTT7=
EXTT8=
EXTT9=
EXTT10=
EXTT11=
EXTT12=
EXTT13=
EXTT14=
EXTT15=
EXTT16=
EXTT17=
EXTT18=
EXTT19=
EXTT20=
EXTT21=
EXTT22=
EXTT23=
EXTT24=
EXTT25=
PLAYORDER=
